<svg width="960" height="540" viewBox="0 0 960 540" fill="none" xmlns="http://www.w3.org/2000/svg">
    <path d="M427.232 320V221.449H442.8V272.184L489.226 221.31H506.462L467.542 264.956L508.686 320H491.033L457.673 274.825L442.8 290.254V320H427.232ZM511.494 298.733C511.494 294.1 512.791 290.069 515.386 286.64C517.981 283.119 521.595 280.431 526.228 278.578C530.954 276.632 536.375 275.659 542.491 275.659C545.734 275.659 549.024 275.937 552.36 276.493C555.789 276.956 558.8 277.651 561.395 278.578V273.991C561.395 268.894 559.866 264.91 556.808 262.037C553.75 259.164 549.348 257.728 543.603 257.728C539.618 257.728 535.773 258.423 532.066 259.813C528.359 261.203 524.514 263.242 520.529 265.929L515.386 255.643C520.205 252.492 525.023 250.129 529.842 248.554C534.753 246.886 539.896 246.052 545.271 246.052C555.001 246.052 562.646 248.647 568.206 253.836C573.859 258.933 576.685 266.207 576.685 275.659V302.764C576.685 304.525 576.963 305.776 577.519 306.517C578.168 307.258 579.233 307.675 580.716 307.768V320C579.326 320.278 578.075 320.463 576.963 320.556C575.851 320.649 574.924 320.695 574.183 320.695C570.847 320.695 568.345 319.907 566.677 318.332C565.102 316.664 564.175 314.811 563.897 312.772L563.48 308.602C560.329 312.679 556.298 315.83 551.387 318.054C546.476 320.278 541.518 321.39 536.514 321.39C531.695 321.39 527.386 320.417 523.587 318.471C519.788 316.432 516.822 313.699 514.691 310.27C512.56 306.841 511.494 302.996 511.494 298.733ZM557.781 303.181C560.19 300.772 561.395 298.501 561.395 296.37V288.03C555.928 285.991 550.368 284.972 544.715 284.972C539.155 284.972 534.614 286.13 531.093 288.447C527.664 290.671 525.95 293.683 525.95 297.482C525.95 300.633 527.201 303.552 529.703 306.239C532.298 308.834 536.004 310.131 540.823 310.131C544.066 310.131 547.217 309.482 550.275 308.185C553.333 306.888 555.835 305.22 557.781 303.181ZM636.101 260.508C630.17 260.693 624.888 262.083 620.255 264.678C615.714 267.18 612.471 270.794 610.525 275.52V320H595.235V247.303H609.413V263.566C611.915 258.562 615.205 254.577 619.282 251.612C623.359 248.554 627.668 246.886 632.209 246.608C633.043 246.608 633.784 246.608 634.433 246.608C635.082 246.608 635.638 246.654 636.101 246.747V260.508ZM686.422 321.39C680.862 321.39 675.812 320.093 671.271 317.498C666.731 314.811 663.209 311.243 660.707 306.795V320H647.224V218.53H662.514V261.064C665.387 256.431 668.955 252.77 673.217 250.083C677.573 247.396 682.669 246.052 688.507 246.052C694.994 246.052 700.647 247.813 705.465 251.334C710.284 254.855 714.037 259.535 716.724 265.373C719.412 271.118 720.755 277.327 720.755 283.999C720.755 290.856 719.226 297.111 716.168 302.764C713.203 308.417 709.126 312.957 703.936 316.386C698.747 319.722 692.909 321.39 686.422 321.39ZM682.391 308.324C686.839 308.324 690.778 307.212 694.206 304.988C697.635 302.671 700.276 299.66 702.129 295.953C704.075 292.246 705.048 288.262 705.048 283.999C705.048 279.644 704.122 275.566 702.268 271.767C700.508 267.968 698.006 264.91 694.762 262.593C691.519 260.276 687.766 259.118 683.503 259.118C678.87 259.118 674.7 260.647 670.993 263.705C667.287 266.763 664.46 270.47 662.514 274.825V294.007C663.256 296.787 664.692 299.243 666.823 301.374C668.955 303.505 671.41 305.22 674.19 306.517C677.063 307.722 679.797 308.324 682.391 308.324ZM767.172 321.39C759.573 321.39 752.947 319.676 747.295 316.247C741.735 312.726 737.426 308.139 734.368 302.486C731.31 296.741 729.781 290.486 729.781 283.721C729.781 276.956 731.31 270.748 734.368 265.095C737.518 259.35 741.874 254.763 747.434 251.334C753.086 247.813 759.666 246.052 767.172 246.052C774.678 246.052 781.211 247.813 786.771 251.334C792.423 254.763 796.779 259.35 799.837 265.095C802.987 270.748 804.563 276.956 804.563 283.721C804.563 290.486 803.034 296.741 799.976 302.486C796.918 308.139 792.562 312.726 786.91 316.247C781.35 319.676 774.77 321.39 767.172 321.39ZM745.488 283.86C745.488 288.493 746.461 292.663 748.407 296.37C750.353 300.077 752.947 302.996 756.191 305.127C759.434 307.258 763.094 308.324 767.172 308.324C771.156 308.324 774.77 307.258 778.014 305.127C781.35 302.903 783.991 299.938 785.937 296.231C787.883 292.524 788.856 288.354 788.856 283.721C788.856 279.088 787.883 274.918 785.937 271.211C783.991 267.504 781.35 264.585 778.014 262.454C774.77 260.23 771.156 259.118 767.172 259.118C763.187 259.118 759.527 260.23 756.191 262.454C752.947 264.585 750.353 267.551 748.407 271.35C746.461 275.057 745.488 279.227 745.488 283.86ZM883.315 320H868.025V279.273C868.025 272.416 866.913 267.458 864.689 264.4C862.557 261.249 859.36 259.674 855.098 259.674C852.132 259.674 849.167 260.415 846.202 261.898C843.329 263.381 840.734 265.419 838.418 268.014C836.101 270.609 834.433 273.528 833.414 276.771V320H818.124V247.303H832.024V261.898C834.804 257.079 838.835 253.234 844.117 250.361C849.399 247.488 855.237 246.052 861.631 246.052C867.376 246.052 871.824 247.442 874.975 250.222C878.125 252.909 880.303 256.477 881.508 260.925C882.712 265.373 883.315 270.284 883.315 275.659V320Z"
          fill="#2F3136"/>
    <path d="M40 147.228L218.043 45L393.914 147.228L219.128 249.456L40 147.228Z" fill="#3A3A3A"/>
    <path d="M217.723 244L393.872 147.209V351.665L219.223 454.001L217.723 244Z" fill="#3A3A3A"/>
    <path d="M40 147L219.23 242.703V454L40 350.369V147Z" fill="#3A3A3A"/>
    <path d="M219.128 114.603L335.29 183.117L218.042 250.544L102.966 182.03L219.128 114.603Z" fill="#00AD8F"/>
    <path d="M102.966 182.029L218.042 250.544L189.051 266.817L161.59 284.257L220.5 382L102.966 314.708V182.029Z"
          fill="#1C937E"/>
    <path d="M161.018 284.101L190.829 265.64L220.141 249.327L278.765 215.613L335.218 314.579L220.5 382L161.018 284.101Z"
          fill="#1E806F"/>
    <path d="M161.59 284.257L189.453 266.416L278.838 215.743L290.779 236.668L174.617 306.008L161.59 284.257Z"
          fill="#2A7265"/>
</svg>
