<?xml version="1.0" encoding="UTF-8"?>
<svg data-name="Слой 1" viewBox="0 0 1686.6 413.2" xmlns="http://www.w3.org/2000/svg">
    <defs>
        <style>.cls-1{fill:#3a3a3a;}.cls-2{fill:url(#a);}</style>
        <linearGradient id="a" x1="1395.9" x2="1395.9" y1="851.1" y2="1187.2" gradientUnits="userSpaceOnUse">
            <stop stop-color="#00ad8f" offset="0"/>
            <stop stop-color="#00ad8f" offset="1"/>
        </linearGradient>
    </defs>
    <path class="cls-1" transform="translate(-156.69 -793.4)"
          d="M470.25,1159.67h-96.1L263.22,1013.05h0a122.18,122.18,0,0,0-28.55,78.49v68.13h-78V793.4h78V957L364.26,793.4h96.1L314.84,965.28Z"/>
    <path class="cls-1" transform="translate(-156.69 -793.4)"
          d="m709.89 1159.7h-69.73v-34q-28.57 34-84 34-35.7 0-64-23.34t-28.28-64.52q0-42.82 27.73-64.25t64.53-21.41q56.55 0 84 32.39v-35.69q0-20.31-15.93-32.4t-42.21-12.08q-43.4 0-77.43 31.3l-32.43-42.49c31.48-27.82 76.17-45.92 121.94-45.92q51.06 0 83.47 23.61t32.39 76.88zm-125.75-47.22q20.15 0 34.43-6.16a36.25 36.25 0 0 0 21.59-33.38 36.23 36.23 0 0 0-21.59-33.38q-14.28-6.16-34.43-6.16-21.4 0-35.69 10.71t-14.28 29.38q0 18.12 14.28 28.55t35.69 10.44z"/>
    <path class="cls-1" transform="translate(-156.69 -793.4)"
          d="M813.76,1159.67H744V881.26h69.74v49.42q14.82-18.66,37.89-30.75t46.67-12.08v68.09q-7.14-1.63-19.22-1.64-17.58,0-37.34,8.78l-.39.18c-17,7.63-27.61,24.82-27.61,43.43Z"/>
    <path class="cls-1" transform="translate(-156.69 -793.4)"
          d="M998,1159.67H928.21V793.4H998V928.49q31.31-40.63,81.82-40.64,51.62,0,84.57,37.89t32.94,101.59q0,64.8-32.94,101.87t-84.57,37.06q-49.41,0-81.82-40.63Zm0-106.51c0,17.75,9.62,34.37,25.47,42.37l.34.17q17,8.52,34,8.51,30.2,0,48.87-21.14t18.67-55.74q0-34.59-18.67-56t-48.87-21.42q-17,0-34,8.79l-1,.49A47.49,47.49,0,0,0,998,1001.24Z"/>
    <path class="cls-1" transform="translate(-156.69 -793.4)"
          d="M1843.31,1159.67h-69.74V999.33q0-49.43-48.88-49.43h-.75c-33.21.27-59.65,28-59.65,61.25v148.51h-69.74V894.44h69.74V929q34.59-41.19,92.8-41.19,42.84,0,64.53,22.52t21.69,62Z"/>
    <path class="cls-2" transform="translate(-156.69 -793.4)"
          d="m1527.8 905.86-95.69-55.25a72.35 72.35 0 0 0-72.34 0l-95.7 55.25a72.35 72.35 0 0 0-36.17 62.65v110.49a72.34 72.34 0 0 0 36.17 62.65l95.7 55.25a72.35 72.35 0 0 0 72.34 0l95.69-55.25a72.32 72.32 0 0 0 36.22-62.65v-110.49a72.33 72.33 0 0 0-36.22-62.65zm-198.49 102.56a19 19 0 0 1 0-26.78l56-56a18.92 18.92 0 0 1 26.77 0l22.46 22.36a19 19 0 0 1 0 26.78l-56 56a18.93 18.93 0 0 1-26.77 0zm133.25 57.46-56 56a19 19 0 0 1-26.78 0l-22.41-22.42a18.93 18.93 0 0 1 0-26.77l56-56a19 19 0 0 1 26.78 0l22.41 22.42a18.92 18.92 0 0 1 0 26.77z"/>
</svg>
