<svg width="512" height="512" viewBox="0 0 512 512" fill="none" xmlns="http://www.w3.org/2000/svg">
<path d="M35 127.66L257.177 0L476.645 127.66L258.532 255.321L35 127.66Z" fill="#3A3A3A"/>
<path d="M257.178 248.53L476.646 127.66V382.981L258.532 509.283L257.178 248.53Z" fill="#3A3A3A"/>
<path d="M35 127.66L258.532 247.172V509.283L35 381.623V127.66Z" fill="#3A3A3A"/>
<path d="M258.532 86.918L403.49 172.478L257.178 256.679L113.575 171.12L258.532 86.918Z" fill="#00AD8F"/>
<path d="M113.575 171.119L257.178 256.679L186.731 298.78L259.887 421.008L113.575 336.806V171.119Z" fill="#1C937E"/>
<path d="M186.64 298.618L223.218 275.531L259.796 255.159L332.952 213.059L403.398 336.645L259.796 420.847L186.64 298.618Z" fill="#1E806F"/>
<path d="M186.73 298.78L214.164 281.268L333.042 213.221L347.945 239.351L202.987 325.942L186.73 298.78Z" fill="#2A7265"/>
</svg>
